<?xml version="1.0" encoding="utf-8"?>
<!-- Generator: Adobe Illustrator 20.1.0, SVG Export Plug-In . SVG Version: 6.00 Build 0)  -->
<svg version="1.1" id="Layer_1" xmlns="http://www.w3.org/2000/svg" xmlns:xlink="http://www.w3.org/1999/xlink" x="0px" y="0px"
	 viewBox="0 0 205.3 67.5" style="enable-background:new 0 0 205.3 67.5;" xml:space="preserve">
<style type="text/css">
	.st0{fill:#3d6b2e;}
</style>
<g>
	<path class="st0" d="M0,9c0.1-0.4,0.2-0.8,0.2-1.2c0.2-1.2,0.6-2.3,1.3-3.3c0.8-1.3,1.9-2.3,3.3-3c1.4-0.8,2.9-1.2,4.5-1.3
		C9.8,0,10.2,0,10.6,0c18.6,0,37.2,0,55.8,0c0.2,0,0.4,0,0.6,0c0,0.1,0,0.2,0,0.3s0,0.2,0,0.4c0,18.7,0,37.5,0,56.2
		c0,1.6-0.3,3.2-1,4.7c-0.3,0.7-0.8,1.4-1.3,1.9c-1.5,1.7-3.5,2.6-5.8,3.1c-0.8,0.2-1.7,0.2-2.5,0.2c-18.6,0-37.2,0-55.8,0
		c-0.2,0-0.4,0-0.6,0C0,47.6,0,28.3,0,9z M49.2,43.8c0-3.1,0-6.2,0-9.2c0-0.1,0-0.2,0-0.3c0-0.3-0.1-0.4-0.4-0.4c-0.5,0-1,0-1.5,0
		c-0.6,0-1.3,0-1.9,0c-0.3,0-0.4,0.1-0.4,0.4v0.1c0,5.7,0,11.4,0,17.1c0,1.4,0.2,2.8,0.7,4.2c0.8,2.3,2.4,3.7,4.7,4.2
		c1.6,0.3,3.2,0.3,4.8,0c2.5-0.5,4.1-2,5-4.4c0.4-1.3,0.6-2.7,0.6-4.1c0-4.5,0-9,0-13.6c0-1.2,0-2.4,0-3.7c0-0.4-0.1-0.5-0.5-0.5
		c-1,0-2,0-3,0c-0.7,0-0.7,0-0.7,0.7c0,5.7,0,11.5,0,17.2c0,0.8,0,1.6-0.2,2.3c-0.2,0.9-0.7,1.5-1.7,1.7c-0.9,0.2-1.8,0.2-2.7,0.1
		c-0.4,0-0.8-0.1-1.2-0.2c-0.7-0.2-1.1-0.6-1.3-1.3c0-0.2-0.1-0.3-0.1-0.5c-0.1-0.8-0.1-1.5-0.1-2.3C49.2,49,49.2,46.4,49.2,43.8z
		 M19,38.1c0.2,0,0.3,0,0.5,0c1.7,0,3.4,0,5.1,0c0.5,0,0.5-0.1,0.5-0.5c0-1.1,0-2.2,0-3.3c0-0.4-0.1-0.5-0.5-0.5
		c-5.9,0-11.7,0-17.6,0c-0.5,0-0.5,0.1-0.5,0.5c0,2.3,0,4.7,0,7c0,0.4,0.1,0.5,0.5,0.5c1.1,0,2.2,0,3.3,0c0.4,0,0.5-0.1,0.5-0.5
		c0-0.9,0-1.8,0-2.7c0-0.1,0-0.3,0-0.5c1.3,0,2.6,0,4,0c0,0.1,0,0.2,0,0.3c0,0.9,0,1.8,0,2.8c0,6,0,11.9,0,17.9c0,0.6,0,0.6,0.6,0.6
		c2.2,0,4.5,0,6.7,0c0.5,0,0.5-0.1,0.5-0.5c0-1.1,0-2.2,0-3.3c0-0.4-0.1-0.5-0.5-0.5c-0.9,0-1.8,0-2.7,0c-0.1,0-0.3,0-0.4,0
		C19,49.6,19,43.9,19,38.1z M33.6,37.2C33.7,37.2,33.7,37.2,33.6,37.2c0.2,0.3,0.2,0.6,0.2,0.8c0.1,0.9,0.2,1.8,0.4,2.8
		c0.2,1.1,0.5,2.3,0.8,3.4c1.2,5.2,2.5,10.3,3.7,15.5c0.1,0.5,0.2,0.5,0.7,0.4c0.9-0.2,1.9-0.5,2.8-0.8c0.7-0.2,0.7-0.2,0.5-0.9
		c-1.7-6.6-3.4-13.1-5.2-19.7c-0.4-1.5-0.8-2.9-1.2-4.4c-0.1-0.4-0.2-0.5-0.5-0.5c-1.5,0-3,0-4.4,0c-0.3,0-0.4,0.1-0.5,0.4
		c0,0.1,0,0.2-0.1,0.2c-1.6,6.2-3.2,12.3-4.8,18.5c-0.5,1.9-1,3.8-1.5,5.8c-0.1,0.4-0.1,0.5,0.3,0.6c0.3,0.1,0.6,0.2,0.8,0.2
		c0.7,0.2,1.5,0.4,2.2,0.6c0.3,0.1,0.4,0,0.5-0.3c0-0.1,0-0.1,0-0.2c1.2-5.1,2.5-10.2,3.7-15.4c0.5-2.1,1.1-4.2,1.3-6.4
		C33.6,37.7,33.6,37.4,33.6,37.2z M31.5,59.5c0,1.2,1,2.3,2.2,2.3c1.2,0,2.2-1,2.2-2.3c0-1.2-0.9-2.2-2.2-2.2
		C32.4,57.3,31.5,58.4,31.5,59.5z"/>
	<path class="st0" d="M190.3,37.5c0,0.5,0,1.1,0.1,1.6c0,0.6,0.1,1.2,0.1,1.8c0,6,0,12,0,18c0,0.8,0,0.8-0.8,0.8c-0.4,0-0.8,0-1.2,0
		c-0.5,0-0.5,0-0.5-0.5c0-0.1,0-0.1,0-0.2c0-8.1,0-16.3,0-24.4c0-0.8,0-0.8,0.8-0.8s1.5,0,2.3,0c0.5,0,0.6,0.1,0.7,0.6
		c1.2,4.8,2.4,9.5,3.6,14.3c0.2,1,0.5,2,0.7,3s0.4,1.9,0.5,2.9c0,0.1,0.1,0.2,0.1,0.3c0.1-0.8,0.2-1.6,0.4-2.4
		c0.2-1,0.5-2.1,0.7-3.1c0.7-2.8,1.3-5.6,2-8.4c0.5-2.2,1-4.4,1.6-6.6c0.1-0.4,0.2-0.6,0.7-0.6c0.9,0,1.8,0,2.7,0
		c0.4,0,0.5,0.1,0.5,0.5c0,0.1,0,0.2,0,0.2c0,8.2,0,16.3,0,24.5c0,0.6,0,0.7-0.6,0.7c-0.5,0-0.9,0-1.4,0c-0.4,0-0.4-0.1-0.4-0.4
		c0-0.1,0-0.2,0-0.3c0-6.3,0-12.6,0-18.9c0-0.9,0.1-1.7,0.1-2.6c0,0,0-0.1-0.1-0.2c-0.1,0.3-0.1,0.6-0.2,1c-0.5,2.7-1.3,5.3-1.9,7.9
		c-0.8,3.2-1.6,6.5-2.4,9.7c-0.1,0.5-0.3,1-0.4,1.5c-0.1,0.4-0.1,0.4-0.5,0.4c-0.5,0-1,0-1.6,0c-0.4,0-0.4,0-0.5-0.4
		c-0.2-0.8-0.4-1.7-0.7-2.5c-1.1-4.1-2.1-8.3-3.2-12.4c-0.4-1.5-0.8-3.1-1-4.6C190.5,37.7,190.4,37.6,190.3,37.5
		C190.4,37.5,190.4,37.5,190.3,37.5z"/>
	<path class="st0" d="M179.3,48.7c0.2,0.5,0.4,0.9,0.7,1.3c0.1,0.2,0.2,0.5,0.4,0.7c0.8,1.7,1.7,3.3,2.5,5c0.5,1,1,2,1.5,3
		c0.2,0.4,0.2,0.6-0.3,0.8c-0.4,0.2-0.8,0.5-1.3,0.7c-0.3,0.2-0.5,0.2-0.6-0.2c-1.4-2.8-2.7-5.5-4.1-8.3c-0.4-0.9-0.9-1.8-1.3-2.7
		c0-0.1-0.1-0.2-0.1-0.2c-1.3,0-2.6,0-3.9,0c0,0.2,0,0.3,0,0.5c0,3.3,0,6.6,0,9.8c0,0.7,0,0.7-0.7,0.7c-0.5,0-0.9,0-1.4,0
		c-0.4,0-0.4-0.1-0.5-0.4c0-0.1,0-0.2,0-0.3c0-8.1,0-16.3,0-24.4c0-0.7,0-0.8,0.8-0.8c2.5,0,5,0,7.5,0c0.5,0,1.1,0,1.6,0.2
		c1.5,0.3,2.4,1.2,3.1,2.6c0.5,1,0.7,2.1,0.8,3.2c0,0.7,0.1,1.4,0.1,2.1c0,1.2-0.2,2.3-0.6,3.5c-0.3,0.8-0.7,1.5-1.3,2.1
		s-1.4,1-2.3,1.2C179.6,48.6,179.5,48.6,179.3,48.7z M172.7,46.4c0.1,0,0.3,0,0.4,0c2,0,3.9,0,5.9,0c1,0,1.6-0.5,1.8-1.3
		c0.1-0.3,0.2-0.6,0.2-0.9c0.1-0.7,0.1-1.5,0.1-2.2c0-1.1,0-2.2-0.1-3.3c0-0.5-0.2-1-0.3-1.4c-0.2-0.7-0.7-1-1.4-1.1
		c-0.3,0-0.6-0.1-0.9-0.1c-1.8,0-3.6,0-5.4,0c-0.1,0-0.2,0-0.3,0C172.7,39.6,172.7,43,172.7,46.4z"/>
	<path class="st0" d="M150.1,46.8c0-1.3,0-2.4,0.1-3.5c0.1-1.7,0.3-3.4,0.8-5.1c0.3-1,0.7-1.9,1.3-2.8c0.9-1.1,2-1.8,3.4-2.1
		c0.9-0.2,1.8-0.3,2.8-0.2c0.9,0,1.9,0.1,2.8,0.4c1.5,0.5,2.5,1.5,3.2,2.8c0.6,1.2,1,2.4,1.2,3.7c0.2,1,0.3,2,0.3,3.1
		c0.1,0.7,0.1,1.4,0.1,2.1c0,0.6,0.1,1.2,0,1.7c-0.1,2.2-0.1,4.4-0.6,6.5c-0.2,1.1-0.5,2.2-1,3.2c-0.9,1.9-2.4,3-4.5,3.3
		c-1.5,0.2-3,0.2-4.4-0.1c-1.8-0.4-3.1-1.4-3.9-3c-0.6-1.2-1-2.4-1.2-3.8c-0.2-1-0.3-2-0.3-3C150.2,49,150.1,47.8,150.1,46.8z
		 M163.4,46.7L163.4,46.7c0-1.3,0-2.6-0.1-3.9c0-1-0.1-2-0.3-3c-0.1-0.8-0.3-1.6-0.7-2.3c-0.4-0.8-1-1.3-1.8-1.5
		c-0.4-0.1-0.8-0.2-1.2-0.2c-0.7,0-1.4-0.1-2.1,0c-0.6,0-1.1,0.1-1.7,0.3c-0.7,0.3-1.3,0.7-1.6,1.4c-0.2,0.4-0.3,0.7-0.4,1.1
		c-0.4,1.4-0.5,2.9-0.6,4.4c-0.1,1.4,0,2.9,0,4.4c0,1.2,0,2.4,0.1,3.7c0,0.8,0.1,1.6,0.2,2.3c0.1,0.8,0.3,1.6,0.5,2.3
		c0.4,1.1,1.2,1.8,2.4,2c1.4,0.3,2.9,0.3,4.3,0c0.9-0.2,1.6-0.8,2-1.6c0.2-0.5,0.4-1,0.5-1.5c0.4-1.5,0.4-3,0.5-4.5
		C163.4,48.9,163.4,47.8,163.4,46.7z"/>
	<path class="st0" d="M76.3,48.7c0,0.2,0,0.4,0,0.5c0,3.3,0,6.5,0,9.8c0,0.1,0,0.2,0,0.3c0,0.4,0,0.4-0.4,0.4c-0.5,0-1.1,0-1.6,0
		c-0.4,0-0.4-0.1-0.5-0.5c0-0.1,0-0.2,0-0.2c0-8.2,0-16.3,0-24.5c0-0.7,0-0.7,0.7-0.7c2.5,0,5,0,7.5,0c0.7,0,1.4,0,2.1,0.3
		c1.2,0.4,2,1.3,2.6,2.4c0.6,1.2,0.8,2.5,0.8,3.8c0,0.8,0,1.6,0,2.4c-0.1,1.2-0.3,2.4-0.9,3.6c-0.8,1.6-2.1,2.3-3.8,2.4
		c-2,0-4,0-6,0C76.6,48.7,76.5,48.7,76.3,48.7z M76.3,36.1c0,3.5,0,6.9,0,10.3c0.1,0,0.1,0,0.1,0c2.1,0,4.1,0,6.2,0
		c0.7,0,1.3-0.3,1.6-1c0.1-0.2,0.2-0.4,0.2-0.6c0.1-0.4,0.2-0.9,0.2-1.3c0.1-0.8,0.1-1.6,0.1-2.5c0-0.4,0-0.8,0-1.3
		c0-0.8-0.1-1.6-0.3-2.3c-0.3-0.8-0.8-1.2-1.7-1.3c-0.4,0-0.8-0.1-1.2-0.1c-1.6,0-3.2,0-4.7,0C76.7,36.1,76.5,36.1,76.3,36.1z"/>
	<path class="st0" d="M111.7,35.9c-0.1,0.8-0.2,1.5-0.3,2.3c-0.1,0.4-0.2,0.7-0.2,1.1c-1,4.1-2,8.1-3,12.2c-0.7,2.7-1.3,5.4-2,8.1
		c0,0.1,0,0.2-0.1,0.2c0,0.2-0.2,0.3-0.4,0.2c-0.6-0.1-1.1-0.3-1.7-0.5c-0.2-0.1-0.3-0.2-0.2-0.5c0.3-1.1,0.6-2.3,0.9-3.4
		c0.7-2.5,1.3-5,2-7.5c0.7-2.7,1.4-5.3,2.1-8c0.5-1.8,1-3.6,1.4-5.4c0.3-1,0.2-0.8,1.1-0.8c0.5,0,1,0,1.4,0s0.5,0,0.6,0.5
		c0.3,1,0.5,2,0.8,3c0.6,2.3,1.2,4.6,1.8,7s1.3,4.8,1.9,7.3c0.6,2.5,1.3,4.9,1.9,7.4c0,0.1,0,0.1,0.1,0.2c0.1,0.3,0,0.4-0.3,0.5
		c-0.6,0.2-1.1,0.3-1.7,0.4c-0.3,0.1-0.4,0-0.5-0.3c-0.2-0.7-0.4-1.4-0.5-2.1c-1.1-4.3-2.2-8.6-3.2-12.9c-0.5-2.1-1.1-4.1-1.6-6.2
		c-0.2-0.7-0.2-1.4-0.3-2.1C111.9,36.2,111.8,36,111.7,35.9C111.8,35.9,111.7,35.9,111.7,35.9z"/>
	<path class="st0" d="M138.7,36.1c0,3.3,0,6.6,0,9.9c0.1,0,0.3,0,0.4,0c2.2,0,4.4,0,6.7,0c0.1,0,0.2,0,0.3,0c0.3,0,0.4,0.1,0.4,0.4
		c0,0.5,0,1,0,1.5c0,0.3-0.2,0.4-0.4,0.4c-0.1,0-0.2,0-0.3,0c-2.2,0-4.4,0-6.6,0c-0.1,0-0.3,0-0.5,0c0,0.2,0,0.4,0,0.5
		c0,3.4,0,6.8,0,10.3c0,0.7,0,0.7-0.7,0.7c-0.5,0-0.9,0-1.4,0c-0.3,0-0.4-0.1-0.4-0.4c0-0.1,0-0.2,0-0.2c0-8.2,0-16.4,0-24.6
		c0-0.1,0-0.1,0-0.2c0-0.5,0.1-0.5,0.5-0.5c2.2,0,4.3,0,6.5,0c1.5,0,2.9,0,4.4,0c0.1,0,0.2,0,0.4,0s0.3,0.1,0.3,0.4c0,0.5,0,1,0,1.6
		c0,0.2-0.1,0.3-0.3,0.3c-0.1,0-0.2,0-0.3,0c-2.8,0-5.6,0-8.4,0C139.1,36.1,138.9,36.1,138.7,36.1z"/>
	<path class="st0" d="M127.2,36.1c0,0.2,0,0.4,0,0.6c0,7.5,0,14.9,0,22.4c0,0.7,0,0.7-0.7,0.7c-0.5,0-1,0-1.4,0
		c-0.3,0-0.4-0.1-0.4-0.4c0-0.1,0-0.2,0-0.4c0-7.4,0-14.9,0-22.3c0-0.2,0-0.4,0-0.6c-0.2,0-0.3,0-0.5,0c-1.7,0-3.4,0-5.1,0
		c-0.1,0-0.2,0-0.3,0c-0.2,0-0.3-0.1-0.3-0.3c0-0.6,0-1.1,0-1.7c0-0.2,0.1-0.3,0.3-0.3c0.1,0,0.2,0,0.4,0c4.5,0,9,0,13.5,0
		c0.6,0,0.7,0,0.7,0.7c0,0.4,0,0.7,0,1.1c0,0.4-0.1,0.5-0.5,0.5c-1.7,0-3.5,0-5.2,0C127.5,36.1,127.4,36.1,127.2,36.1z"/>
	<path class="st0" d="M93.3,57.5c0.2,0,0.4,0,0.5,0c2.5,0,5.1,0,7.6,0c0.5,0,0.6,0.1,0.6,0.6c0,0.4,0,0.8,0,1.2s-0.1,0.5-0.5,0.5
		c-3.4,0-6.8,0-10.3,0c-0.4,0-0.5-0.1-0.5-0.5c0-0.1,0-0.2,0-0.2c0-8.2,0-16.3,0-24.5c0-0.7,0-0.7,0.7-0.7c0.5,0,0.9,0,1.4,0
		c0.4,0,0.4,0.1,0.5,0.5c0,0.1,0,0.2,0,0.3c0,7.4,0,14.9,0,22.3C93.3,57.1,93.3,57.3,93.3,57.5z"/>
	<path class="st0" d="M111.7,61.8c-1.3,0-2.3-1-2.2-2.3c0-1.2,1-2.3,2.3-2.2c1.3,0,2.3,1.1,2.2,2.3C114,60.9,112.9,61.9,111.7,61.8z
		"/>
</g>
</svg>
